<?xml version="1.0" encoding="UTF-8" standalone="no"?>
<!DOCTYPE svg PUBLIC "-//W3C//DTD SVG 1.1//EN" "http://www.w3.org/Graphics/SVG/1.1/DTD/svg11.dtd">
<svg width="100%" height="100%" viewBox="0 0 720 720" version="1.1" xmlns="http://www.w3.org/2000/svg" xmlns:xlink="http://www.w3.org/1999/xlink" xml:space="preserve" xmlns:serif="http://www.serif.com/" style="fill-rule:evenodd;clip-rule:evenodd;stroke-linejoin:round;stroke-miterlimit:2;">
    <g transform="matrix(0.24,0,0,0.24,0,0)">
        <g transform="matrix(1.25,0,0,1.29032,-375,-387.097)">
            <ellipse cx="1500" cy="1462.5" rx="1200" ry="1162.5" style="fill:rgb(17,25,109);"/>
        </g>
        <g transform="matrix(1.25,0,0,1.29032,-375,-387.097)">
            <ellipse cx="1500" cy="1462.5" rx="1200" ry="1162.5" style="fill:url(#_Linear1);"/>
        </g>
        <g transform="matrix(1.23619,-0.331237,0.331237,1.23619,-733.375,185.208)">
            <path d="M446.901,1509.39C445.467,1487.78 444.738,1465.97 444.738,1444C444.738,905.883 881.621,469 1419.74,469C1856,469 2225.72,756.148 2350.06,1151.59L2169.08,1311.5L1017.05,1311.5L1419,955L1419,1109L2115.35,1109C1990.52,850.505 1725.81,672 1419.74,672C1113.66,672 848.954,850.505 724.122,1109L900,1109L446.901,1509.39ZM2392.92,1384.08C2394.13,1403.9 2394.74,1423.88 2394.74,1444C2394.74,1982.12 1957.86,2419 1419.74,2419C985.14,2419 616.573,2134.04 490.852,1740.93L667.888,1584.5L1419,1584.5L1419,1584.49L1822.18,1584.49L1419,1941L1419,1787.11L728.097,1787.11C854.512,2041.22 1116.88,2216 1419.74,2216C1722.2,2216 1984.28,2041.68 2110.88,1788.11L1935.73,1788.11L2392.92,1384.08Z" style="fill:white;"/>
        </g>
    </g>
    <defs>
        <linearGradient id="_Linear1" x1="0" y1="0" x2="1" y2="0" gradientUnits="userSpaceOnUse" gradientTransform="matrix(2400,0,0,2325,300,1462.5)"><stop offset="0" style="stop-color:rgb(45,59,115);stop-opacity:1"/><stop offset="1" style="stop-color:rgb(67,78,131);stop-opacity:1"/></linearGradient>
    </defs>
</svg>
